<svg width="17" height="17" viewBox="0 0 17 17" fill="none" xmlns="http://www.w3.org/2000/svg">
<path fill-rule="evenodd" clip-rule="evenodd" d="M0.888889 0H7.11111C7.64444 0 8 0.355556 8 0.888889V7.11111C8 7.64444 7.64444 8 7.11111 8H0.888889C0.355556 8 0 7.64444 0 7.11111V0.888889C0 0.355556 0.355556 0 0.888889 0ZM2 6H6V2H2V6ZM16.1111 0H9.88889C9.35556 0 9 0.355556 9 0.888889V7.11111C9 7.64444 9.35556 8 9.88889 8H16.1111C16.6444 8 17 7.64444 17 7.11111V0.888889C17 0.355556 16.6444 0 16.1111 0ZM11 6H15V2H11V6ZM16.1111 9H9.88889C9.35556 9 9 9.35556 9 9.88889V16.1111C9 16.6444 9.35556 17 9.88889 17H16.1111C16.6444 17 17 16.6444 17 16.1111V9.88889C17 9.35556 16.6444 9 16.1111 9ZM11 15H15V11H11V15ZM7.11111 9H0.888889C0.355556 9 0 9.35556 0 9.88889V16.1111C0 16.6444 0.355556 17 0.888889 17H7.11111C7.64444 17 8 16.6444 8 16.1111V9.88889C8 9.35556 7.64444 9 7.11111 9ZM2 15H6V11H2V15Z" fill="white"/>
</svg>
