<svg width="23" height="20" viewBox="0 0 23 20" fill="none" xmlns="http://www.w3.org/2000/svg">
<path fill-rule="evenodd" clip-rule="evenodd" d="M21.9057 4.02314C20.9496 3.28642 18.1812 2.35355 18.0553 2.30458L13.9787 1.05245C13.7521 0.978857 13.5006 0.978857 13.274 1.07707C12.7202 1.29811 11.5126 1.29811 11.5126 1.29811C11.5126 1.29811 10.3046 1.29811 9.75114 1.07707C9.52458 0.978857 9.27307 0.978857 9.02128 1.05245L4.94461 2.30458C4.81871 2.35355 2.07589 3.26207 1.09423 4.02314C0.993565 4.09673 0.96833 4.24419 1.04404 4.3424L3.28383 8.14803C3.3343 8.24624 3.45992 8.29521 3.58582 8.27086C3.76191 8.22162 4.31569 8.12368 4.59244 8.27086C4.6931 8.31983 4.74329 8.39369 4.79376 8.51625L4.59244 18.7546C4.59244 18.8282 4.61767 18.8774 4.66786 18.9264C4.71805 18.9757 4.76852 19 4.84395 19H18.1563C18.2317 19 18.2822 18.9754 18.3324 18.9264C18.3828 18.8774 18.4078 18.8036 18.4078 18.7546L18.2065 8.51625C18.2317 8.41804 18.3071 8.34445 18.4078 8.27086C18.7098 8.09906 19.2383 8.19727 19.4144 8.27086C19.5151 8.29548 19.641 8.24624 19.7164 8.14803L21.9562 4.3424C22.0316 4.21957 22.0064 4.09673 21.9057 4.02314ZM9.36524 2.06243C10.0675 2.32162 11.4718 2.32162 11.5282 2.32162C11.5845 2.32162 12.9888 2.32162 13.6911 2.03674C13.8035 2.01076 13.9158 1.98478 14 2.01076C13.8876 2.78777 13.354 5.22299 11.5 6C9.64628 5.22299 9.11236 2.81375 9 2.01076C9.14052 2.01076 9.25288 2.03674 9.36524 2.06243ZM5.72772 7.59262C5.26537 7.38893 4.65847 7.45699 4.34069 7.50212L2 4.31214C2.98232 3.79182 5.09184 3.181 5.81433 3C6.07447 3.40713 6.6524 4.49314 6.88357 5.42084C7.05679 6.21267 7.08577 7.20818 6.62343 7.7285C6.50784 7.86412 6.36328 7.93219 6.19006 8C6.07447 7.79631 5.92991 7.68312 5.72772 7.59262ZM5 17.9754L5.20432 8.1372C5.48519 8.06292 5.74074 7.88924 5.94506 7.64156C6.58363 6.79911 6.37931 5.3122 6.27715 4.71743C6.07283 3.67673 5.56203 2.51177 5.33209 2.01613L8.729 1C8.85677 1.917 9.41851 4.37034 11.3852 5.16337C11.4108 5.18822 11.4617 5.18822 11.4873 5.18822H11.5129C11.5386 5.18822 11.5895 5.18822 11.6151 5.16337C13.5818 4.37034 14.1179 1.917 14.2713 1L17.6935 2.0407C17.4636 2.53634 16.9275 3.70103 16.7485 4.742C16.6463 5.33677 16.442 6.82369 17.0806 7.66614C17.2593 7.91382 17.5148 8.0875 17.8213 8.16178L18 18H5.00028V17.9754H5ZM18.6402 7.52481C18.3238 7.47968 17.7194 7.41162 17.259 7.61531C17.0577 7.70581 16.9137 7.84143 16.8275 8C16.655 7.95462 16.511 7.86437 16.3959 7.7285C15.9067 7.20818 15.9355 6.18998 16.1369 5.42084C16.3671 4.49314 16.9426 3.42982 17.2016 3C17.9211 3.20369 19.9929 3.81451 21 4.31214L18.6402 7.52481Z" fill="#1E1E1C"/>
<path d="M18.0553 2.30458L18.2728 1.74539L18.2524 1.73745L18.2315 1.73102L18.0553 2.30458ZM13.9787 1.05245L13.7933 1.62317L13.8025 1.626L13.9787 1.05245ZM13.274 1.07707L13.4965 1.63432L13.5046 1.63106L13.5127 1.62757L13.274 1.07707ZM9.75114 1.07707L9.51251 1.62757L9.52051 1.63104L9.52862 1.63428L9.75114 1.07707ZM9.02128 1.05245L8.85294 0.476486L8.84511 0.478891L9.02128 1.05245ZM4.94461 2.30458L4.76845 1.73102L4.74752 1.73745L4.72711 1.74539L4.94461 2.30458ZM1.09423 4.02314L1.44833 4.50751L1.45516 4.50251L1.46186 4.49733L1.09423 4.02314ZM1.04404 4.3424L1.56113 4.03807L1.54212 4.00577L1.51924 3.97609L1.04404 4.3424ZM3.28383 8.14803L3.81749 7.87378L3.80964 7.8585L3.80092 7.8437L3.28383 8.14803ZM3.58582 8.27086L3.69974 8.85995L3.7238 8.85529L3.74741 8.84869L3.58582 8.27086ZM4.59244 8.27086L4.31071 8.80061L4.32025 8.80568L4.32996 8.81041L4.59244 8.27086ZM4.79376 8.51625L5.39364 8.52805L5.3961 8.40323L5.34856 8.28778L4.79376 8.51625ZM4.59244 18.7546L3.99244 18.7428V18.7546H4.59244ZM4.66786 18.9264L5.08806 18.4981L5.08687 18.497L4.66786 18.9264ZM18.3324 18.9264L17.9145 18.4958L17.9134 18.497L18.3324 18.9264ZM18.4078 18.7546H19.0079L19.0077 18.7428L18.4078 18.7546ZM18.2065 8.51625L17.6253 8.36693L17.605 8.44621L17.6066 8.52805L18.2065 8.51625ZM18.4078 8.27086L18.1111 7.74935L18.0813 7.76628L18.0537 7.7865L18.4078 8.27086ZM19.4144 8.27086L19.183 8.82446L19.2263 8.84254L19.2718 8.85368L19.4144 8.27086ZM19.7164 8.14803L20.1922 8.51349L20.2147 8.48419L20.2335 8.45236L19.7164 8.14803ZM21.9562 4.3424L21.4448 4.02838L21.4391 4.03807L21.9562 4.3424ZM13.6911 2.03674L13.5559 1.45216L13.5096 1.46287L13.4656 1.48074L13.6911 2.03674ZM14 2.01076L14.5938 2.09663L14.6673 1.58874L14.1769 1.43743L14 2.01076ZM11.5 6L11.2681 6.55335L11.5 6.65057L11.7319 6.55337L11.5 6ZM9 2.01076V1.41076H8.3102L8.40579 2.0939L9 2.01076ZM4.34069 7.50212L3.85695 7.85707L4.06943 8.14666L4.42504 8.09616L4.34069 7.50212ZM2 4.31214L1.71915 3.78193L1.10533 4.10706L1.51626 4.66709L2 4.31214ZM5.81433 3L6.31992 2.67693L6.0874 2.31304L5.66852 2.41799L5.81433 3ZM6.88357 5.42084L7.46971 5.29262L7.46786 5.28416L7.46577 5.27577L6.88357 5.42084ZM6.62343 7.7285L6.17481 7.32987L6.16677 7.33931L6.62343 7.7285ZM6.19006 8L5.66822 8.29612L5.92476 8.7482L6.40879 8.55871L6.19006 8ZM5 17.9754L4.40013 17.963L4.38741 18.5754H5V17.9754ZM5.20432 8.1372L5.05092 7.55714L4.61384 7.67273L4.60445 8.12474L5.20432 8.1372ZM5.94506 7.64156L6.4079 8.02337L6.41575 8.01385L6.42321 8.004L5.94506 7.64156ZM6.27715 4.71743L6.86849 4.61586L6.86728 4.60883L6.86591 4.60184L6.27715 4.71743ZM5.33209 2.01613L5.16014 1.4413L4.49615 1.63992L4.78781 2.26863L5.33209 2.01613ZM8.729 1L9.32326 0.917198L9.22679 0.224826L8.55705 0.425167L8.729 1ZM11.3852 5.16337L11.803 4.73276L11.7186 4.65088L11.6096 4.6069L11.3852 5.16337ZM11.6151 5.16337L11.3907 4.6069L11.2817 4.65088L11.1973 4.73276L11.6151 5.16337ZM14.2713 1L14.4458 0.425956L13.7922 0.227185L13.6795 0.901016L14.2713 1ZM17.6935 2.0407L18.2378 2.2932L18.5281 1.66738L17.8681 1.46666L17.6935 2.0407ZM16.7485 4.742L16.1571 4.64033L16.1571 4.64043L16.7485 4.742ZM17.0806 7.66614L17.5673 7.31497L17.5587 7.30369L17.0806 7.66614ZM17.8213 8.16178L18.4212 8.15088L18.4128 7.68776L17.9626 7.57866L17.8213 8.16178ZM18 18V18.6H18.611L18.5999 17.9891L18 18ZM5.00028 18H4.40028V18.6H5.00028V18ZM5.00028 17.9754H5.60028V17.3754H5.00028V17.9754ZM17.259 7.61531L17.0163 7.0666L17.013 7.06805L17.259 7.61531ZM16.8275 8L16.6748 8.58026L17.1298 8.69994L17.3545 8.28669L16.8275 8ZM16.3959 7.7285L16.8537 7.34068L16.8437 7.32881L16.833 7.31748L16.3959 7.7285ZM16.1369 5.42084L16.7173 5.57281L16.7192 5.56535L16.1369 5.42084ZM17.2016 3L17.3651 2.42269L16.9243 2.29789L16.6878 2.69028L17.2016 3ZM21 4.31214L21.4836 4.66733L21.9069 4.09101L21.2658 3.77423L21 4.31214ZM22.2719 3.54786C21.7175 3.12064 20.7078 2.67568 19.8923 2.34898C19.1015 2.03218 18.2568 1.73914 18.2728 1.74539L17.8378 2.86377C17.9798 2.91899 18.5822 3.11686 19.4461 3.46292C20.2852 3.79908 21.1378 4.18892 21.5395 4.49842L22.2719 3.54786ZM18.2315 1.73102L14.1548 0.478892L13.8025 1.626L17.8792 2.87813L18.2315 1.73102ZM14.164 0.481796C13.8166 0.368944 13.4127 0.363017 13.0354 0.526567L13.5127 1.62757C13.5885 1.5947 13.6876 1.58877 13.7933 1.6231L14.164 0.481796ZM13.0516 0.51982C12.8704 0.59214 12.5156 0.644257 12.1411 0.672138C11.967 0.685099 11.8083 0.691632 11.6929 0.6949C11.6355 0.696528 11.5893 0.697332 11.558 0.697729C11.5423 0.697927 11.5304 0.698023 11.5227 0.69807C11.5188 0.698093 11.516 0.698104 11.5143 0.698109C11.5135 0.698111 11.5129 0.698112 11.5126 0.698113C11.5125 0.698113 11.5124 0.698113 11.5124 0.698113C11.5124 0.698113 11.5124 0.698113 11.5124 0.698113C11.5124 0.698113 11.5125 0.698113 11.5125 0.698113C11.5125 0.698113 11.5126 0.698113 11.5126 1.29811C11.5126 1.89811 11.5126 1.89811 11.5127 1.89811C11.5127 1.89811 11.5128 1.89811 11.5129 1.89811C11.513 1.89811 11.5131 1.89811 11.5132 1.89811C11.5135 1.89811 11.5139 1.89811 11.5143 1.89811C11.5152 1.89811 11.5164 1.89811 11.5178 1.8981C11.5207 1.89809 11.5248 1.89808 11.5299 1.89805C11.5401 1.89799 11.5547 1.89787 11.5732 1.89763C11.61 1.89717 11.6625 1.89624 11.7269 1.89442C11.8554 1.89078 12.0331 1.8835 12.2302 1.86883C12.598 1.84145 13.1239 1.78304 13.4965 1.63432L13.0516 0.51982ZM11.5126 1.29811C11.5126 0.698113 11.5126 0.698113 11.5127 0.698113C11.5127 0.698113 11.5127 0.698113 11.5127 0.698113C11.5128 0.698113 11.5128 0.698113 11.5128 0.698113C11.5128 0.698113 11.5127 0.698113 11.5126 0.698113C11.5123 0.698112 11.5117 0.698111 11.5109 0.698109C11.5092 0.698104 11.5064 0.698093 11.5025 0.69807C11.4948 0.698023 11.4829 0.697927 11.4672 0.697729C11.4359 0.697332 11.3897 0.696528 11.3322 0.6949C11.2169 0.691632 11.0581 0.685099 10.884 0.672138C10.5094 0.644253 10.1546 0.592133 9.97367 0.519859L9.52862 1.63428C9.90114 1.78305 10.4271 1.84145 10.7949 1.86883C10.9919 1.8835 11.1698 1.89078 11.2982 1.89442C11.3626 1.89624 11.4151 1.89717 11.452 1.89763C11.4705 1.89787 11.485 1.89799 11.4953 1.89805C11.5004 1.89808 11.5044 1.89809 11.5073 1.8981C11.5088 1.89811 11.51 1.89811 11.5108 1.89811C11.5113 1.89811 11.5116 1.89811 11.5119 1.89811C11.5121 1.89811 11.5122 1.89811 11.5123 1.89811C11.5124 1.89811 11.5124 1.89811 11.5125 1.89811C11.5125 1.89811 11.5126 1.89811 11.5126 1.29811ZM9.98978 0.526567C9.60712 0.360686 9.20722 0.373001 8.85296 0.476539L9.18959 1.62835C9.33892 1.58471 9.44205 1.59703 9.51251 1.62757L9.98978 0.526567ZM8.84511 0.478891L4.76845 1.73102L5.12078 2.87813L9.19744 1.626L8.84511 0.478891ZM4.72711 1.74539C4.73129 1.74376 4.72517 1.74609 4.6933 1.75723C4.66634 1.76666 4.63134 1.77882 4.58577 1.79471C4.49599 1.826 4.37292 1.8691 4.22558 1.92189C3.93122 2.02733 3.53889 2.17183 3.11824 2.33944C2.30416 2.66381 1.29442 3.10873 0.726599 3.54896L1.46186 4.49733C1.8757 4.17648 2.7282 3.7866 3.56242 3.4542C3.96592 3.29343 4.34426 3.15404 4.63027 3.05159C4.8954 2.95661 5.1226 2.87913 5.16211 2.86377L4.72711 1.74539ZM0.740124 3.53878C0.384701 3.79861 0.274123 4.32639 0.568835 4.70871L1.51924 3.97609C1.66254 4.16198 1.60243 4.39485 1.44833 4.50751L0.740124 3.53878ZM0.526947 4.64673L2.76674 8.45236L3.80092 7.8437L1.56113 4.03807L0.526947 4.64673ZM2.75018 8.42228C2.95323 8.81739 3.38441 8.92093 3.69974 8.85995L3.47189 7.68178C3.51688 7.67308 3.57163 7.67512 3.63023 7.69866C3.68932 7.7224 3.76692 7.77538 3.81749 7.87378L2.75018 8.42228ZM3.74741 8.84869C3.79585 8.83514 3.93678 8.80558 4.08896 8.79603C4.16319 8.79137 4.22658 8.7924 4.27471 8.79793C4.32779 8.80402 4.33258 8.81224 4.31071 8.80061L4.87416 7.74112C4.57807 7.58365 4.22356 7.58522 4.01379 7.59838C3.77588 7.61331 3.55187 7.65734 3.42423 7.69303L3.74741 8.84869ZM4.32996 8.81041C4.31877 8.80496 4.30245 8.79556 4.28435 8.78108C4.26607 8.76644 4.25141 8.75098 4.24061 8.73727C4.22194 8.71356 4.22216 8.70393 4.23896 8.74473L5.34856 8.28778C5.27366 8.10591 5.14713 7.87347 4.85491 7.73132L4.32996 8.81041ZM4.19388 8.50446L3.99255 18.7428L5.19232 18.7664L5.39364 8.52805L4.19388 8.50446ZM3.99244 18.7546C3.99244 18.8636 4.01191 18.9812 4.06528 19.0984C4.11729 19.2126 4.18789 19.2964 4.24886 19.3559L5.08687 18.497C5.09765 18.5075 5.13053 18.5421 5.15737 18.6011C5.18558 18.663 5.19244 18.7192 5.19244 18.7546H3.99244ZM4.24766 19.3547C4.39733 19.5015 4.59443 19.6 4.84395 19.6V18.4C4.87374 18.4 4.92551 18.4054 4.98452 18.4309C5.04163 18.4556 5.07629 18.4866 5.08806 18.4981L4.24766 19.3547ZM4.84395 19.6H18.1563V18.4H4.84395V19.6ZM18.1563 19.6C18.4072 19.6 18.6034 19.5002 18.7514 19.3559L17.9134 18.497C17.9245 18.4861 17.9586 18.4556 18.0151 18.4311C18.0738 18.4056 18.1256 18.4 18.1563 18.4V19.6ZM18.7502 19.357C18.9247 19.1877 19.0078 18.955 19.0078 18.7546H17.8078C17.8078 18.6877 17.8223 18.6411 17.8336 18.6136C17.846 18.5832 17.8694 18.5396 17.9145 18.4958L18.7502 19.357ZM19.0077 18.7428L18.8063 8.50446L17.6066 8.52805L17.8079 18.7664L19.0077 18.7428ZM18.7876 8.66557C18.7721 8.72594 18.7438 8.76396 18.732 8.77752C18.727 8.78339 18.7255 8.78406 18.7309 8.7794C18.7363 8.7747 18.7459 8.76693 18.7619 8.75523L18.0537 7.7865C17.9359 7.8726 17.7061 8.0526 17.6253 8.36693L18.7876 8.66557ZM18.7045 8.79237C18.6961 8.79713 18.7083 8.78846 18.7542 8.78177C18.798 8.77539 18.8547 8.77344 18.92 8.77762C18.9844 8.78173 19.0473 8.79117 19.1 8.80243C19.157 8.8146 19.1845 8.82509 19.183 8.82446L19.6458 7.71726C19.4825 7.64905 19.2382 7.59552 18.9966 7.58006C18.7656 7.56528 18.4151 7.57637 18.1111 7.74935L18.7045 8.79237ZM19.2718 8.85368C19.6433 8.94453 19.9986 8.76556 20.1922 8.51349L19.2405 7.78257C19.2703 7.74385 19.3081 7.71609 19.351 7.69884C19.3915 7.68253 19.4639 7.66529 19.557 7.68804L19.2718 8.85368ZM20.2335 8.45236L22.4733 4.64673L21.4391 4.03807L19.1993 7.8437L20.2335 8.45236ZM22.4675 4.65636C22.5681 4.49247 22.6264 4.28502 22.5884 4.06303C22.55 3.83882 22.4229 3.65802 22.2598 3.53878L21.5516 4.50751C21.4892 4.46185 21.4251 4.37927 21.4056 4.26558C21.3865 4.15411 21.4197 4.0695 21.4449 4.02843L22.4675 4.65636ZM9.15749 2.62531C9.59582 2.78709 10.1983 2.85515 10.6455 2.88764C11.1123 2.92157 11.494 2.92162 11.5282 2.92162V1.72162C11.506 1.72162 11.1573 1.72167 10.7324 1.6908C10.2878 1.65849 9.83695 1.59696 9.57298 1.49954L9.15749 2.62531ZM11.5282 2.92162C11.563 2.92162 11.9462 2.92156 12.4152 2.88411C12.8632 2.84833 13.472 2.77308 13.9166 2.59274L13.4656 1.48074C13.2079 1.58528 12.7634 1.65247 12.3196 1.68791C11.8968 1.72169 11.5497 1.72162 11.5282 1.72162V2.92162ZM13.8263 2.62132C13.8557 2.61452 13.8765 2.60973 13.8957 2.60578C13.9145 2.60193 13.9247 2.60035 13.9296 2.59975C13.9346 2.59913 13.9275 2.60039 13.9118 2.59987C13.8961 2.59934 13.8642 2.59678 13.8231 2.58409L14.1769 1.43743C14.0166 1.38797 13.8694 1.39808 13.7827 1.40878C13.6931 1.41983 13.6051 1.44079 13.5559 1.45216L13.8263 2.62132ZM13.4062 1.92489C13.355 2.27859 13.2056 3.01841 12.8606 3.74919C12.5131 4.48499 12.0029 5.13867 11.2681 5.44663L11.7319 6.55337C12.8511 6.08432 13.5347 5.13189 13.9457 4.26157C14.359 3.38623 14.5326 2.51994 14.5938 2.09663L13.4062 1.92489ZM11.7319 5.44665C10.9956 5.138 10.4857 4.48902 10.1391 3.75806C9.7945 3.03124 9.64525 2.29237 9.59421 1.92762L8.40579 2.0939C8.46711 2.53213 8.64099 3.39938 9.05485 4.27219C9.46673 5.14084 10.1507 6.08499 11.2681 6.55335L11.7319 5.44665ZM9 2.61076C9.06475 2.61076 9.11648 2.62103 9.2315 2.64733L9.49897 1.47752C9.38928 1.45244 9.21629 1.41076 9 1.41076V2.61076ZM5.96962 7.04354C5.33044 6.76195 4.55889 6.86511 4.25634 6.90808L4.42504 8.09616C4.57436 8.07496 4.76991 8.05174 4.97324 8.05402C5.18205 8.05637 5.3586 8.08565 5.48582 8.14169L5.96962 7.04354ZM4.82443 7.14716L2.48374 3.95719L1.51626 4.66709L3.85695 7.85707L4.82443 7.14716ZM2.28085 4.84235C2.72196 4.6087 3.45128 4.33926 4.18985 4.09951C4.91836 3.86303 5.61319 3.66893 5.96014 3.58201L5.66852 2.41799C5.29297 2.51207 4.57179 2.71389 3.81935 2.95814C3.07695 3.19913 2.26035 3.49526 1.71915 3.78193L2.28085 4.84235ZM5.30873 3.32307C5.54957 3.69998 6.0917 4.72446 6.30138 5.56592L7.46577 5.27577C7.21311 4.26182 6.59938 3.11427 6.31992 2.67693L5.30873 3.32307ZM6.29743 5.54907C6.37558 5.90628 6.41714 6.29389 6.3933 6.6346C6.36863 6.98705 6.27995 7.21175 6.17491 7.32996L7.07194 8.12704C7.42924 7.72493 7.55724 7.19171 7.59037 6.71837C7.62432 6.23329 7.56479 5.72723 7.46971 5.29262L6.29743 5.54907ZM6.16677 7.33931C6.15403 7.35426 6.13167 7.37852 5.97133 7.44129L6.40879 8.55871C6.59488 8.48586 6.86165 8.37399 7.08008 8.11768L6.16677 7.33931ZM6.7119 7.70388C6.52179 7.36887 6.26863 7.17737 5.97284 7.04497L5.48259 8.14026C5.59119 8.18887 5.62716 8.22375 5.66822 8.29612L6.7119 7.70388ZM5.59987 17.9879L5.80419 8.14966L4.60445 8.12474L4.40013 17.963L5.59987 17.9879ZM5.35772 8.71726C5.77703 8.60637 6.13574 8.35328 6.4079 8.02337L5.48222 7.25975C5.34573 7.4252 5.19336 7.51947 5.05092 7.55714L5.35772 8.71726ZM6.42321 8.004C6.85564 7.43352 6.9714 6.69858 6.98863 6.10399C7.00633 5.49299 6.92183 4.92643 6.86849 4.61586L5.68581 4.819C5.73462 5.1032 5.80337 5.57748 5.78913 6.06924C5.77441 6.57741 5.67304 7.00716 5.4669 7.27912L6.42321 8.004ZM6.86591 4.60184C6.64653 3.48443 6.108 2.26292 5.87638 1.76363L4.78781 2.26863C5.01605 2.76061 5.49913 3.86902 5.68839 4.83302L6.86591 4.60184ZM5.50404 2.59096L8.90095 1.57483L8.55705 0.425167L5.16014 1.4413L5.50404 2.59096ZM8.13474 1.0828C8.20377 1.5782 8.3888 2.48763 8.82793 3.39059C9.26635 4.29207 9.98872 5.24721 11.1608 5.71983L11.6096 4.6069C10.815 4.2865 10.2731 3.61846 9.90708 2.86576C9.54174 2.11454 9.38201 1.3388 9.32326 0.917198L8.13474 1.0828ZM10.9674 5.59397C11.1132 5.73554 11.2813 5.76781 11.3401 5.77736C11.4133 5.78924 11.478 5.78822 11.4873 5.78822V4.58822C11.4711 4.58822 11.4975 4.5872 11.5324 4.59286C11.5518 4.59601 11.5871 4.6031 11.6303 4.62029C11.6732 4.63738 11.7387 4.67033 11.803 4.73276L10.9674 5.59397ZM11.4873 5.78822H11.5129V4.58822H11.4873V5.78822ZM11.5129 5.78822C11.5223 5.78822 11.587 5.78924 11.6602 5.77736C11.719 5.76781 11.887 5.73554 12.0329 5.59397L11.1973 4.73276C11.2616 4.67033 11.3271 4.63738 11.37 4.62029C11.4132 4.6031 11.4485 4.59601 11.4679 4.59286C11.5028 4.5872 11.5292 4.58822 11.5129 4.58822V5.78822ZM11.8395 5.71983C13.0132 5.24657 13.729 4.28973 14.1636 3.38889C14.5989 2.48654 14.7828 1.57909 14.8631 1.09898L13.6795 0.901016C13.6064 1.33791 13.4455 2.11563 13.0828 2.86746C12.7193 3.6208 12.1837 4.28714 11.3907 4.6069L11.8395 5.71983ZM14.0967 1.57404L17.519 2.61475L17.8681 1.46666L14.4458 0.425956L14.0967 1.57404ZM17.1492 1.7882C16.9238 2.27419 16.3517 3.50879 16.1571 4.64033L17.3398 4.84368C17.5032 3.89326 18.0034 2.79849 18.2378 2.2932L17.1492 1.7882ZM16.1571 4.64043C16.1038 4.951 16.0193 5.51756 16.037 6.12856C16.0542 6.72315 16.17 7.45809 16.6024 8.02858L17.5587 7.30369C17.3526 7.03173 17.2512 6.60199 17.2365 6.09382C17.2222 5.60206 17.291 5.12777 17.3398 4.84358L16.1571 4.64043ZM16.594 8.01721C16.8565 8.38108 17.2346 8.63695 17.68 8.74489L17.9626 7.57866C17.795 7.53804 17.662 7.44656 17.5671 7.31506L16.594 8.01721ZM17.2214 8.17267L17.4001 18.0109L18.5999 17.9891L18.4212 8.15088L17.2214 8.17267ZM18 17.4H5.00028V18.6H18V17.4ZM5.60028 18V17.9754H4.40028V18H5.60028ZM5.00028 17.3754H5V18.5754H5.00028V17.3754ZM18.7249 6.93081C18.4238 6.88787 17.6541 6.78443 17.0163 7.06661L17.5018 8.16401C17.6277 8.10828 17.8028 8.07906 18.0104 8.07671C18.2125 8.07443 18.4069 8.09761 18.5555 8.1188L18.7249 6.93081ZM17.013 7.06805C16.7018 7.20795 16.4543 7.43043 16.3004 7.71331L17.3545 8.28669C17.3732 8.25244 17.4136 8.20367 17.505 8.16257L17.013 7.06805ZM16.9801 7.41974C16.9255 7.40538 16.8885 7.3817 16.8537 7.34068L15.9381 8.11631C16.1336 8.34705 16.3844 8.50387 16.6748 8.58026L16.9801 7.41974ZM16.833 7.31748C16.723 7.20044 16.6302 6.9759 16.606 6.62654C16.5826 6.28849 16.6296 5.90789 16.7173 5.57279L15.5564 5.26889C15.4428 5.70293 15.3747 6.216 15.4088 6.70941C15.4422 7.19151 15.5796 7.73623 15.9588 8.13952L16.833 7.31748ZM16.7192 5.56535C16.9272 4.72707 17.4646 3.72599 17.7155 3.30972L16.6878 2.69028C16.4205 3.13364 15.8069 4.25922 15.5545 5.27634L16.7192 5.56535ZM17.0382 3.57731C17.7726 3.78523 19.7864 4.38173 20.7342 4.85005L21.2658 3.77423C20.1994 3.24729 18.0696 2.62215 17.3651 2.42269L17.0382 3.57731ZM20.5164 3.95695L18.1567 7.16962L19.1238 7.88L21.4836 4.66733L20.5164 3.95695Z" fill="white"/>
</svg>
