<svg width="21" height="21" viewBox="0 0 21 21" fill="none" xmlns="http://www.w3.org/2000/svg">
<path fill-rule="evenodd" clip-rule="evenodd" d="M0.875 19.2325C0.875 19.7225 1.26875 20.1163 1.75875 20.1163H13.125C13.615 20.1163 14.0088 19.7225 14.0088 19.2325V18.375H0.875V19.2325ZM7.4375 7.86622C4.15625 7.86622 0.875 9.62497 0.875 13.125H14C14 9.62497 10.7188 7.86622 7.4375 7.86622ZM3.1675 11.375C4.13875 10.0187 6.20375 9.61622 7.4375 9.61622C8.67125 9.61622 10.7362 10.0187 11.7075 11.375H3.1675ZM0.875 14.875H14V16.625H0.875V14.875ZM15.75 4.375V0.875H14V4.375H9.625L9.82625 6.125H18.1912L16.9663 18.375H15.75V20.125H17.255C17.99 20.125 18.5938 19.5563 18.6813 18.8388L20.125 4.375H15.75Z" fill="white"/>
</svg>
