<svg width="20" height="19" viewBox="0 0 20 19" fill="none" xmlns="http://www.w3.org/2000/svg">
<path fill-rule="evenodd" clip-rule="evenodd" d="M19.0909 0H13.6364C12.1818 0 10.8182 0.727273 10 1.81818C9.18182 0.727273 7.81818 0 6.36364 0H0.909091C0.363636 0 0 0.363636 0 0.909091V14.5455C0 15.0909 0.363636 15.4545 0.909091 15.4545H7.27273C8.27273 15.4545 9.09091 16.2727 9.09091 17.2727C9.09091 17.8182 9.45455 18.1818 10 18.1818C10.5455 18.1818 10.9091 17.8182 10.9091 17.2727C10.9091 16.2727 11.7273 15.4545 12.7273 15.4545H19.0909C19.6364 15.4545 20 15.0909 20 14.5455V0.909091C20 0.363636 19.6364 0 19.0909 0ZM9.09091 14.0909C8.54545 13.8182 7.90909 13.6364 7.27273 13.6364H1.81818V1.81818H6.36364C7.90909 1.81818 9.09091 3 9.09091 4.54545V14.0909ZM12.7273 13.6364H18.1818V1.81818H13.6364C12.0909 1.81818 10.9091 3 10.9091 4.54545V14.0909C11.4545 13.8182 12.0909 13.6364 12.7273 13.6364Z" fill="white"/>
</svg>
