<svg width="24" height="24" viewBox="0 0 24 24" fill="none" xmlns="http://www.w3.org/2000/svg">
<path d="M7.38506 5.77002C6.4621 5.77002 5.76988 6.46224 5.76988 7.3852C5.76988 8.30816 6.4621 9.00038 7.38506 9.00038L12.6921 9.00038L6.23136 15.4611C5.53914 16.1533 5.53914 17.0763 6.23136 17.7685C6.92358 18.4607 7.84654 18.4607 8.53876 17.7685L14.9995 11.3078L14.9995 16.6148C14.9995 17.5378 15.6917 18.23 16.6147 18.23C17.5376 18.23 18.2298 17.5378 18.2298 16.6148V7.3852C18.2298 7.15446 18.2298 6.92372 18.1145 6.80835C18.1145 6.57761 17.8837 6.34687 17.7684 6.2315C17.653 6.11613 17.4223 5.88539 17.1915 5.88539C17.0761 5.77002 16.8454 5.77002 16.6147 5.77002L7.38506 5.77002Z" fill="black"/>
<mask id="mask0" mask-type="alpha" maskUnits="userSpaceOnUse" x="0" y="0" width="24" height="24">
<path d="M7.38506 5.77002C6.4621 5.77002 5.76988 6.46224 5.76988 7.3852C5.76988 8.30816 6.4621 9.00038 7.38506 9.00038L12.6921 9.00038L6.23136 15.4611C5.53914 16.1533 5.53914 17.0763 6.23136 17.7685C6.92358 18.4607 7.84654 18.4607 8.53876 17.7685L14.9995 11.3078L14.9995 16.6148C14.9995 17.5378 15.6917 18.23 16.6147 18.23C17.5376 18.23 18.2298 17.5378 18.2298 16.6148V7.3852C18.2298 7.15446 18.2298 6.92372 18.1145 6.80835C18.1145 6.57761 17.8837 6.34687 17.7684 6.2315C17.653 6.11613 17.4223 5.88539 17.1915 5.88539C17.0761 5.77002 16.8454 5.77002 16.6147 5.77002L7.38506 5.77002Z" fill="white"/>
</mask>
<g mask="url(#mask0)">
<rect width="39.1579" height="39.1579" transform="matrix(-1 0 0 1 31.5789 -7.57892)" fill="white"/>
</g>
</svg>
