<svg width="26" height="25" viewBox="0 0 26 25" fill="none" xmlns="http://www.w3.org/2000/svg">
<path fill-rule="evenodd" clip-rule="evenodd" d="M13 3.70374C21.142 3.70374 25.7015 11.9037 25.9186 12.3037C26.0271 12.5037 26.0271 12.9037 25.9186 13.1037C25.7015 13.5037 21.142 21.7037 13 21.7037C5.33635 21.7037 0.846614 14.4389 0.16449 13.3351C0.121916 13.2662 0.0941747 13.2214 0.0814196 13.2037C-0.0271399 12.9037 -0.0271399 12.6037 0.0814196 12.3037C0.298539 11.9037 4.85804 3.70374 13 3.70374ZM2.25261 12.7037C3.3382 14.3037 7.13779 19.7037 13 19.7037C18.8622 19.7037 22.6618 14.3037 23.7474 12.7037C22.6618 11.1037 18.8622 5.70374 13 5.70374C7.13779 5.70374 3.22965 11.1037 2.25261 12.7037ZM13 8.70374C10.6117 8.70374 8.65762 10.5037 8.65762 12.7037C8.65762 14.9037 10.6117 16.7037 13 16.7037C15.3883 16.7037 17.3424 14.9037 17.3424 12.7037C17.3424 10.5037 15.3883 8.70374 13 8.70374ZM10.8288 12.7037C10.8288 13.8037 11.8058 14.7037 13 14.7037C14.1942 14.7037 15.1712 13.8037 15.1712 12.7037C15.1712 11.6037 14.1942 10.7037 13 10.7037C11.8058 10.7037 10.8288 11.6037 10.8288 12.7037Z" fill="black"/>
<mask id="mask0" mask-type="alpha" maskUnits="userSpaceOnUse" x="0" y="3" width="26" height="19">
<path fill-rule="evenodd" clip-rule="evenodd" d="M13 3.70374C21.142 3.70374 25.7015 11.9037 25.9186 12.3037C26.0271 12.5037 26.0271 12.9037 25.9186 13.1037C25.7015 13.5037 21.142 21.7037 13 21.7037C5.33635 21.7037 0.846614 14.4389 0.16449 13.3351C0.121916 13.2662 0.0941747 13.2214 0.0814196 13.2037C-0.0271399 12.9037 -0.0271399 12.6037 0.0814196 12.3037C0.298539 11.9037 4.85804 3.70374 13 3.70374ZM2.25261 12.7037C3.3382 14.3037 7.13779 19.7037 13 19.7037C18.8622 19.7037 22.6618 14.3037 23.7474 12.7037C22.6618 11.1037 18.8622 5.70374 13 5.70374C7.13779 5.70374 3.22965 11.1037 2.25261 12.7037ZM13 8.70374C10.6117 8.70374 8.65762 10.5037 8.65762 12.7037C8.65762 14.9037 10.6117 16.7037 13 16.7037C15.3883 16.7037 17.3424 14.9037 17.3424 12.7037C17.3424 10.5037 15.3883 8.70374 13 8.70374ZM10.8288 12.7037C10.8288 13.8037 11.8058 14.7037 13 14.7037C14.1942 14.7037 15.1712 13.8037 15.1712 12.7037C15.1712 11.6037 14.1942 10.7037 13 10.7037C11.8058 10.7037 10.8288 11.6037 10.8288 12.7037Z" fill="white"/>
</mask>
<g mask="url(#mask0)">
<rect y="0.703735" width="26" height="24" fill="#B5BBC9"/>
</g>
</svg>
