<svg width="18" height="16" viewBox="0 0 18 16" fill="none" xmlns="http://www.w3.org/2000/svg">
<path fill-rule="evenodd" clip-rule="evenodd" d="M8.81875 9.76911L17.7563 1.30757C18.0813 0.999878 18.0813 0.538339 17.7563 0.230647C17.4312 -0.0770452 16.9438 -0.0770452 16.6187 0.230647L8.25 8.15372L6.38125 6.38449C6.05625 6.0768 5.56875 6.0768 5.24375 6.38449C4.91875 6.69219 4.91875 7.15372 5.24375 7.46142L7.68125 9.76911C7.84375 9.92295 8.00625 9.99988 8.25 9.99988C8.49375 9.99988 8.65625 9.92295 8.81875 9.76911ZM14.4 7.99988C14.4 7.51988 14.72 7.19988 15.2 7.19988C15.68 7.19988 16 7.51988 16 7.99988V13.5999C16 14.9599 14.96 15.9999 13.6 15.9999H2.4C1.04 15.9999 0 14.9599 0 13.5999V2.39988C0 1.03988 1.04 -0.00012207 2.4 -0.00012207H11.2C11.68 -0.00012207 12 0.319878 12 0.799878C12 1.27988 11.68 1.59988 11.2 1.59988H2.4C1.92 1.59988 1.6 1.91988 1.6 2.39988V13.5999C1.6 14.0799 1.92 14.3999 2.4 14.3999H13.6C14.08 14.3999 14.4 14.0799 14.4 13.5999V7.99988Z" fill="white"/>
</svg>
