<svg width="24" height="24" viewBox="0 0 24 24" fill="none" xmlns="http://www.w3.org/2000/svg">
<path d="M7.286 18.364C6.34319 18.364 5.63608 17.6569 5.63608 16.714C5.63608 15.7712 6.34319 15.0641 7.286 15.0641L12.7072 15.0641L6.10749 8.46447C5.40038 7.75736 5.40038 6.81455 6.10749 6.10744C6.81459 5.40034 7.7574 5.40034 8.46451 6.10744L15.0642 12.7071L15.0642 7.28595C15.0642 6.34315 15.7713 5.63604 16.7141 5.63604C17.6569 5.63604 18.364 6.34315 18.364 7.28595V16.714C18.364 16.9497 18.364 17.1854 18.2462 17.3033C18.2462 17.539 18.0105 17.7747 17.8926 17.8926C17.7747 18.0104 17.539 18.2461 17.3033 18.2461C17.1855 18.364 16.9498 18.364 16.7141 18.364L7.286 18.364Z" fill="black"/>
<mask id="mask0" mask-type="alpha" maskUnits="userSpaceOnUse" x="0" y="0" width="24" height="24">
<path d="M7.286 18.364C6.34319 18.364 5.63608 17.6569 5.63608 16.714C5.63608 15.7712 6.34319 15.0641 7.286 15.0641L12.7072 15.0641L6.10749 8.46447C5.40038 7.75736 5.40038 6.81455 6.10749 6.10744C6.81459 5.40034 7.7574 5.40034 8.46451 6.10744L15.0642 12.7071L15.0642 7.28595C15.0642 6.34315 15.7713 5.63604 16.7141 5.63604C17.6569 5.63604 18.364 6.34315 18.364 7.28595V16.714C18.364 16.9497 18.364 17.1854 18.2462 17.3033C18.2462 17.539 18.0105 17.7747 17.8926 17.8926C17.7747 18.0104 17.539 18.2461 17.3033 18.2461C17.1855 18.364 16.9498 18.364 16.7141 18.364L7.286 18.364Z" fill="white"/>
</mask>
<g mask="url(#mask0)">
<rect x="32" y="32" width="40" height="40" transform="rotate(-180 32 32)" fill="white"/>
</g>
</svg>
