<svg width="19" height="19" viewBox="0 0 19 19" fill="none" xmlns="http://www.w3.org/2000/svg">
<path fill-rule="evenodd" clip-rule="evenodd" d="M16.15 0H2.85C1.235 0 0 1.235 0 2.85V16.15C0 17.765 1.235 19 2.85 19H16.15C17.765 19 19 17.765 19 16.15V2.85C19 1.235 17.765 0 16.15 0ZM17 16.0625C17 16.625 16.625 17 16.0625 17H2.9375C2.375 17 2 16.625 2 16.0625V2.9375C2 2.375 2.375 2 2.9375 2H16.0625C16.625 2 17 2.375 17 2.9375V16.0625ZM13.9 10C14.56 10 15 9.6 15 9C15 8.4 14.56 8 13.9 8H5.1C4.44 8 4 8.4 4 9C4 9.6 4.44 10 5.1 10H13.9Z" fill="white"/>
</svg>
