<svg width="20" height="20" viewBox="0 0 20 20" fill="none" xmlns="http://www.w3.org/2000/svg">
<path fill-rule="evenodd" clip-rule="evenodd" d="M15.375 7H14.5625V5.28571C14.5625 2.92 12.7425 1 10.5 1C8.2575 1 6.4375 2.92 6.4375 5.28571V7H5.625C4.73125 7 4 7.77143 4 8.71429V17.2857C4 18.2286 4.73125 19 5.625 19H15.375C16.2688 19 17 18.2286 17 17.2857V8.71429C17 7.77143 16.2688 7 15.375 7ZM7.98125 5.28571C7.98125 3.82 9.11063 2.62857 10.5 2.62857C11.8894 2.62857 13.0188 3.82 13.0188 5.28571V7H7.98125V5.28571ZM13.75 13.8571H11.3125V16.4286H9.6875V13.8571H7.25V12.1429H9.6875V9.57143H11.3125V12.1429H13.75V13.8571Z" fill="#66788A"/>
</svg>
