<svg width="18" height="18" viewBox="0 0 18 18" fill="none" xmlns="http://www.w3.org/2000/svg">
<path d="M17.7 1.7L6.7 12.7C6.5 12.9 6.3 13 6 13C5.7 13 5.5 12.9 5.3 12.7L0.3 7.7C-0.1 7.3 -0.1 6.7 0.3 6.3C0.7 5.9 1.3 5.9 1.7 6.3L6 10.6L16.3 0.3C16.7 -0.1 17.3 -0.1 17.7 0.3C18.1 0.7 18.1 1.3 17.7 1.7Z" fill="black" fill-opacity="0.5"/>
<path d="M17.7 6.7L6.7 17.7C6.5 17.9 6.3 18 6 18C5.7 18 5.5 17.9 5.3 17.7L0.3 12.7C-0.1 12.3 -0.1 11.7 0.3 11.3C0.7 10.9 1.3 10.9 1.7 11.3L6 15.6L16.3 5.3C16.7 4.9 17.3 4.9 17.7 5.3C18.1 5.7 18.1 6.3 17.7 6.7Z" fill="black" fill-opacity="0.5"/>
</svg>
