<svg width="20" height="15" viewBox="0 0 20 15" fill="none" xmlns="http://www.w3.org/2000/svg">
<path fill-rule="evenodd" clip-rule="evenodd" d="M0.3 0.304052C0.6 0.00405183 1 -0.0959482 1.4 0.104052C1.5 0.104052 1.6 0.204052 1.7 0.304052C1.9 0.504052 2 0.704052 2 1.00405C2 1.30405 1.9 1.50405 1.7 1.70405C1.5 1.90405 1.3 2.00405 1 2.00405H0.8C0.7 1.90405 0.7 1.90405 0.6 1.90405C0.55 1.90405 0.525 1.87905 0.5 1.85405C0.475 1.82905 0.45 1.80405 0.4 1.80405L0.3 1.70405C0.25 1.65405 0.225 1.60405 0.2 1.55405C0.175 1.50405 0.15 1.45405 0.1 1.40405C0 1.30405 0 1.10405 0 1.00405C0 0.904052 0 0.704052 0.1 0.604052C0.1 0.504052 0.2 0.404052 0.3 0.304052L0.3 0.304052ZM6 0.00405184C5.4 0.00405184 5 0.404052 5 1.00405C5 1.60405 5.4 2.00405 6 2.00405H19C19.6 2.00405 20 1.60405 20 1.00405C20 0.404052 19.6 0.00405184 19 0.00405184H6ZM6 6.00405H19C19.6 6.00405 20 6.40405 20 7.00405C20 7.60405 19.6 8.00405 19 8.00405H6C5.4 8.00405 5 7.60405 5 7.00405C5 6.40405 5.4 6.00405 6 6.00405ZM19 12.0041H6C5.4 12.0041 5 12.4041 5 13.0041C5 13.6041 5.4 14.0041 6 14.0041H19C19.6 14.0041 20 13.6041 20 13.0041C20 12.4041 19.6 12.0041 19 12.0041ZM1.9 6.60405C1.9 6.55405 1.875 6.52905 1.85 6.50405C1.825 6.47905 1.8 6.45405 1.8 6.40405C1.8 6.30405 1.7 6.30405 1.7 6.30405C1.4 6.00405 1 5.90405 0.6 6.10405C0.55 6.15405 0.5 6.17905 0.45 6.20405C0.4 6.22905 0.35 6.25405 0.3 6.30405L0.2 6.40405C0.2 6.45405 0.175 6.47905 0.15 6.50405C0.125 6.52905 0.1 6.55405 0.1 6.60405C0.1 6.64655 0.1 6.67098 0.092326 6.69271C0.0819415 6.72211 0.0575048 6.74655 0 6.80405V7.00405C0 7.30405 0.1 7.50405 0.3 7.70405C0.5 7.90405 0.7 8.00405 1 8.00405C1.3 8.00405 1.5 7.90405 1.7 7.70405C1.9 7.50405 2 7.30405 2 7.00405V6.80405C2 6.75405 1.975 6.72905 1.95 6.70405C1.925 6.67905 1.9 6.65405 1.9 6.60405ZM0.1 12.6041C0.1 12.5041 0.2 12.4041 0.3 12.3041C0.7 11.9041 1.3 11.9041 1.7 12.3041C1.9 12.5041 2 12.7041 2 13.0041C2 13.3041 1.9 13.5041 1.7 13.7041C1.5 13.9041 1.3 14.0041 1 14.0041C0.7 14.0041 0.5 13.9041 0.3 13.7041C0.1 13.5041 0 13.3041 0 13.0041C0 12.9041 0 12.7041 0.1 12.6041Z" fill="black" fill-opacity="0.5"/>
</svg>
