<svg width="21" height="22" viewBox="0 0 21 22" fill="none" xmlns="http://www.w3.org/2000/svg">
<path fill-rule="evenodd" clip-rule="evenodd" d="M21 16.2727C21 16.8455 20.6182 17.2273 20.0455 17.2273H0.954545C0.381818 17.2273 0 16.8455 0 16.2727C0 15.7 0.381818 15.3182 0.954545 15.3182C2.00455 15.3182 2.86364 14.4591 2.86364 13.4091V8.63636C2.86364 4.43636 6.3 1 10.5 1C14.7 1 18.1364 4.43636 18.1364 8.63636V13.4091C18.1364 14.4591 18.9955 15.3182 20.0455 15.3182C20.6182 15.3182 21 15.7 21 16.2727ZM12.9818 20.5682C12.4091 21.5227 11.4545 22 10.5 22C10.0227 22 9.54545 21.9045 9.06818 21.6182C8.59091 21.3318 8.30455 21.0455 8.01818 20.5682C7.73182 20.0909 7.92273 19.5182 8.4 19.2318C8.87727 18.9455 9.45 19.1364 9.73636 19.6136C9.76527 19.6425 9.79417 19.6802 9.82572 19.7213C9.89837 19.8159 9.98507 19.9289 10.1182 19.9955C10.5955 20.2818 11.1682 20.0909 11.4545 19.6136C11.7409 19.1364 12.3136 19.0409 12.7909 19.2318C13.2682 19.4227 13.2682 20.0909 12.9818 20.5682ZM16.2273 13.4091C16.2273 14.0773 16.4182 14.7455 16.7045 15.3182H4.29545C4.58182 14.7455 4.77273 14.0773 4.77273 13.4091V8.63636C4.77273 5.48636 7.35 2.90909 10.5 2.90909C13.65 2.90909 16.2273 5.48636 16.2273 8.63636V13.4091Z" fill="white"/>
<path fill-rule="evenodd" clip-rule="evenodd" d="M16.5 8C18.433 8 20 6.433 20 4.5C20 2.567 18.433 1 16.5 1C14.567 1 13 2.567 13 4.5C13 6.433 14.567 8 16.5 8Z" fill="#DF5060" stroke="white" stroke-width="2"/>
</svg>
