<svg width="18" height="22" viewBox="0 0 18 22" fill="none" xmlns="http://www.w3.org/2000/svg">
<path fill-rule="evenodd" clip-rule="evenodd" d="M0 8.9184V10.7517C0 11.3017 0.360451 11.6684 0.901126 11.6684C1.4418 11.6684 1.80225 11.3017 1.80225 10.7517V8.9184C1.80225 7.36006 2.97372 6.1684 4.50563 6.1684H14.9587L12.8861 8.27673C12.5257 8.6434 12.5257 9.1934 12.8861 9.56006C13.0663 9.7434 13.2466 9.83506 13.5169 9.83506C13.7872 9.83506 13.9675 9.7434 14.1477 9.56006L17.7522 5.8934C17.7972 5.84756 17.8198 5.80173 17.8423 5.7559C17.8648 5.71006 17.8874 5.66423 17.9324 5.6184C18.0225 5.3434 18.0225 5.0684 17.9324 4.88506C17.9324 4.7934 17.8423 4.70173 17.7522 4.61006L14.1477 0.943396C13.7872 0.576729 13.2466 0.576729 12.8861 0.943396C12.5257 1.31006 12.5257 1.86006 12.8861 2.22673L14.9587 4.33506H4.50563C1.98248 4.33506 0 6.35173 0 8.9184ZM16.1977 11.5851C16.1977 11.0351 16.5582 10.6684 17.0989 10.6684C17.6395 10.6684 18 11.0351 18 11.5851V13.4184C18 15.9851 16.0175 18.0017 13.4944 18.0017H3.0413L5.11389 20.1101C5.47434 20.4767 5.47434 21.0267 5.11389 21.3934C4.93367 21.5767 4.75344 21.6684 4.4831 21.6684C4.21277 21.6684 4.03254 21.5767 3.85232 21.3934L0.24781 17.7267C0.202753 17.6809 0.180225 17.6351 0.157697 17.5892C0.135169 17.5434 0.112641 17.4976 0.0675845 17.4517C-0.0225282 17.1767 -0.0225282 16.9017 0.0675845 16.7184C0.0675845 16.6267 0.157697 16.5351 0.24781 16.4434L3.85232 12.7767C4.21277 12.4101 4.75344 12.4101 5.11389 12.7767C5.47434 13.1434 5.47434 13.6934 5.11389 14.0601L3.0413 16.1684H13.4944C15.0263 16.1684 16.1977 14.9767 16.1977 13.4184V11.5851Z" fill="white"/>
</svg>
